<svg width="14" height="14" viewBox="0 0 14 14" fill="none" xmlns="http://www.w3.org/2000/svg">
<path d="M7.33398 6.16536V6.66536H7.83398H12.834C12.9224 6.66536 13.0072 6.70048 13.0697 6.763C13.1322 6.82551 13.1673 6.91029 13.1673 6.9987C13.1673 7.0871 13.1322 7.17189 13.0697 7.2344C13.0072 7.29691 12.9224 7.33203 12.834 7.33203H7.83398H7.33398V7.83203V12.832C7.33398 12.9204 7.29887 13.0052 7.23635 13.0677C7.17384 13.1302 7.08906 13.1654 7.00065 13.1654C6.91224 13.1654 6.82746 13.1302 6.76495 13.0677C6.70244 13.0052 6.66732 12.9204 6.66732 12.832V7.83203V7.33203H6.16732H1.16732C1.07891 7.33203 0.994128 7.29691 0.931616 7.2344C0.869103 7.17189 0.833984 7.0871 0.833984 6.9987C0.833984 6.91029 0.869103 6.82551 0.931615 6.763C0.994128 6.70048 1.07891 6.66536 1.16732 6.66536H6.16732H6.66732V6.16536V1.16536C6.66732 1.07696 6.70244 0.992175 6.76495 0.929663C6.82746 0.86715 6.91225 0.832031 7.00065 0.832031C7.08906 0.832031 7.17384 0.86715 7.23635 0.929662C7.29887 0.992175 7.33398 1.07696 7.33398 1.16536V6.16536Z" fill="black" stroke="#A7D267"/>
</svg>
