<svg width="14" height="11" viewBox="0 0 14 11" fill="none" xmlns="http://www.w3.org/2000/svg">
<path d="M13.4098 5.08229C12.0631 1.95563 9.52977 0.015625 6.79643 0.015625C4.0631 0.015625 1.52976 1.95563 0.183098 5.08229C0.146389 5.1664 0.127441 5.25719 0.127441 5.34896C0.127441 5.44073 0.146389 5.53151 0.183098 5.61562C1.52976 8.74229 4.0631 10.6823 6.79643 10.6823C9.52977 10.6823 12.0631 8.74229 13.4098 5.61562C13.4465 5.53151 13.4654 5.44073 13.4654 5.34896C13.4654 5.25719 13.4465 5.1664 13.4098 5.08229ZM6.79643 9.34896C4.6831 9.34896 2.6831 7.82229 1.52976 5.34896C2.6831 2.87562 4.6831 1.34896 6.79643 1.34896C8.90977 1.34896 10.9098 2.87562 12.0631 5.34896C10.9098 7.82229 8.90977 9.34896 6.79643 9.34896ZM6.79643 2.68229C6.26901 2.68229 5.75344 2.83869 5.31491 3.13171C4.87638 3.42472 4.53459 3.8412 4.33275 4.32847C4.13092 4.81574 4.07811 5.35192 4.181 5.8692C4.2839 6.38648 4.53787 6.86164 4.91081 7.23458C5.28375 7.60752 5.75891 7.86149 6.27619 7.96439C6.79347 8.06728 7.32965 8.01447 7.81692 7.81264C8.30419 7.6108 8.72067 7.26901 9.01368 6.83048C9.3067 6.39195 9.4631 5.87637 9.4631 5.34896C9.4631 4.64171 9.18215 3.96344 8.68205 3.46334C8.18195 2.96324 7.50368 2.68229 6.79643 2.68229ZM6.79643 6.68229C6.53272 6.68229 6.27494 6.60409 6.05567 6.45758C5.83641 6.31108 5.66551 6.10284 5.56459 5.8592C5.46368 5.61557 5.43727 5.34748 5.48872 5.08884C5.54016 4.8302 5.66715 4.59262 5.85362 4.40615C6.04009 4.21968 6.27767 4.09269 6.53631 4.04124C6.79495 3.9898 7.06304 4.0162 7.30668 4.11712C7.55031 4.21804 7.75855 4.38893 7.90506 4.6082C8.05157 4.82746 8.12976 5.08525 8.12976 5.34896C8.12976 5.70258 7.98929 6.04172 7.73924 6.29177C7.48919 6.54182 7.15005 6.68229 6.79643 6.68229Z" fill="#283219"/>
</svg>
