<svg width="16" height="16" viewBox="0 0 14 17" fill="none" xmlns="http://www.w3.org/2000/svg">
<path d="M6.79655 9.18229C6.57554 9.18229 6.36357 9.27009 6.20729 9.42637C6.05101 9.58265 5.96322 9.79461 5.96322 10.0156V12.5156C5.96322 12.7366 6.05101 12.9486 6.20729 13.1049C6.36357 13.2612 6.57554 13.349 6.79655 13.349C7.01756 13.349 7.22952 13.2612 7.3858 13.1049C7.54209 12.9486 7.62988 12.7366 7.62988 12.5156V10.0156C7.62988 9.79461 7.54209 9.58265 7.3858 9.42637C7.22952 9.27009 7.01756 9.18229 6.79655 9.18229ZM10.9632 5.84896V4.18229C10.9632 3.07722 10.5242 2.01742 9.74283 1.23601C8.96143 0.454612 7.90162 0.015625 6.79655 0.015625C5.69148 0.015625 4.63167 0.454612 3.85027 1.23601C3.06887 2.01742 2.62988 3.07722 2.62988 4.18229V5.84896C1.96684 5.84896 1.33096 6.11235 0.862116 6.58119C0.393275 7.05003 0.129883 7.68592 0.129883 8.34896V14.1823C0.129883 14.8453 0.393275 15.4812 0.862116 15.9501C1.33096 16.4189 1.96684 16.6823 2.62988 16.6823H10.9632C11.6263 16.6823 12.2621 16.4189 12.731 15.9501C13.1998 15.4812 13.4632 14.8453 13.4632 14.1823V8.34896C13.4632 7.68592 13.1998 7.05003 12.731 6.58119C12.2621 6.11235 11.6263 5.84896 10.9632 5.84896ZM4.29655 4.18229C4.29655 3.51925 4.55994 2.88337 5.02878 2.41452C5.49762 1.94568 6.13351 1.68229 6.79655 1.68229C7.45959 1.68229 8.09548 1.94568 8.56432 2.41452C9.03316 2.88337 9.29655 3.51925 9.29655 4.18229V5.84896H4.29655V4.18229ZM11.7965 14.1823C11.7965 14.4033 11.7088 14.6153 11.5525 14.7715C11.3962 14.9278 11.1842 15.0156 10.9632 15.0156H2.62988C2.40887 15.0156 2.19691 14.9278 2.04063 14.7715C1.88435 14.6153 1.79655 14.4033 1.79655 14.1823V8.34896C1.79655 8.12794 1.88435 7.91598 2.04063 7.7597C2.19691 7.60342 2.40887 7.51563 2.62988 7.51563H10.9632C11.1842 7.51563 11.3962 7.60342 11.5525 7.7597C11.7088 7.91598 11.7965 8.12794 11.7965 8.34896V14.1823Z" fill="#283219"/>
</svg>
