<svg width="15" height="15" viewBox="0 0 15 15" fill="none" xmlns="http://www.w3.org/2000/svg">
<path d="M10.586 1.58714C10.7705 1.39612 10.9912 1.24375 11.2352 1.13894C11.4792 1.03412 11.7416 0.978946 12.0072 0.976638C12.2728 0.97433 12.5361 1.02493 12.7819 1.1255C13.0277 1.22606 13.251 1.37456 13.4388 1.56235C13.6266 1.75013 13.7751 1.97344 13.8756 2.21923C13.9762 2.46502 14.0268 2.72838 14.0245 2.99394C14.0222 3.2595 13.967 3.52194 13.8622 3.76595C13.7574 4.00996 13.605 4.23065 13.414 4.41514L12.621 5.20814L9.793 2.38014L10.586 1.58714ZM8.379 3.79414L0 12.1731V15.0011H2.828L11.208 6.62214L8.379 3.79414Z" fill="black"/>
</svg>
