<svg width="27" height="16" viewBox="0 0 27 16" fill="none" xmlns="http://www.w3.org/2000/svg">
<path d="M26.7964 0.652344C26.4258 2.24418 26.0347 3.93806 25.623 5.73398C25.2524 7.52989 24.9025 9.285 24.5731 10.9993C24.2437 12.6728 23.9761 14.2238 23.7703 15.6523H15.3094L14.8771 14.9789C15.2477 13.5095 15.7212 11.9585 16.2976 10.3258C16.874 8.69316 17.4916 7.0401 18.1503 5.36663C18.8502 3.69316 19.5296 2.12173 20.1883 0.652344H26.7964ZM12.7156 0.652344C12.3451 2.24418 11.9539 3.93806 11.5422 5.73398C11.1717 7.52989 10.8217 9.285 10.4923 10.9993C10.163 12.6728 9.89536 14.2238 9.6895 15.6523H1.22869L0.796387 14.9789C1.16693 13.5095 1.64041 11.9585 2.21681 10.3258C2.79322 8.69316 3.4108 7.0401 4.06955 5.36663C4.76947 3.69316 5.4488 2.12173 6.10755 0.652344H12.7156Z" fill="white"/>
</svg>
