<svg width="16" height="12" viewBox="0 0 16 12" fill="none" xmlns="http://www.w3.org/2000/svg">
<path d="M11.9535 3.30859C12.2502 3.30859 12.5402 3.22062 12.7869 3.0558C13.0335 2.89098 13.2258 2.65671 13.3393 2.38262C13.4529 2.10853 13.4826 1.80693 13.4247 1.51596C13.3668 1.22499 13.2239 0.957713 13.0142 0.747934C12.8044 0.538156 12.5371 0.395294 12.2461 0.337417C11.9552 0.279539 11.6536 0.309244 11.3795 0.422775C11.1054 0.536307 10.8711 0.728565 10.7063 0.975239C10.5415 1.22191 10.4535 1.51192 10.4535 1.80859C10.4535 2.20642 10.6115 2.58795 10.8928 2.86925C11.1741 3.15056 11.5557 3.30859 11.9535 3.30859ZM1.236 6.78859C1.38462 6.8361 1.52789 6.89894 1.6635 6.97609C2.12995 7.24895 2.66061 7.39277 3.201 7.39277C3.74139 7.39277 4.27205 7.24895 4.7385 6.97609C5.03181 6.81187 5.36234 6.72563 5.6985 6.72563C6.03466 6.72563 6.36519 6.81187 6.6585 6.97609L6.816 7.0511C7.2711 7.27265 7.77347 7.37959 8.27935 7.3626C8.78524 7.3456 9.27929 7.20519 9.7185 6.9536C10.0118 6.78937 10.3423 6.70313 10.6785 6.70313C11.0147 6.70313 11.3452 6.78937 11.6385 6.9536C12.1138 7.22524 12.6511 7.36988 13.1985 7.37359C13.7268 7.36811 14.2442 7.22322 14.6985 6.9536C14.8341 6.87644 14.9774 6.8136 15.126 6.7661C15.2369 6.75846 15.3446 6.7263 15.4415 6.67192C15.5384 6.61755 15.622 6.54232 15.6863 6.45168C15.7506 6.36104 15.7939 6.25725 15.8131 6.14782C15.8324 6.03838 15.8271 5.92604 15.7976 5.81891C15.7681 5.71178 15.7152 5.61253 15.6427 5.52835C15.5702 5.44417 15.4799 5.37715 15.3783 5.33214C15.2767 5.28714 15.1664 5.26527 15.0553 5.26811C14.9442 5.27096 14.8352 5.29845 14.736 5.34859C14.4743 5.42981 14.2227 5.54052 13.986 5.67859C13.7466 5.81683 13.475 5.8896 13.1985 5.8896C12.922 5.8896 12.6504 5.81683 12.411 5.67859C11.8914 5.3855 11.305 5.23149 10.7085 5.23149C10.112 5.23149 9.52555 5.3855 9.006 5.67859C8.93544 5.71308 8.8628 5.74314 8.7885 5.76859L9.9585 4.59859C9.98531 4.56386 10.008 4.5261 10.026 4.48609C10.0599 4.4492 10.0901 4.409 10.116 4.36609C10.1195 4.31866 10.1195 4.27103 10.116 4.22359C10.1203 4.17619 10.1203 4.1285 10.116 4.08109C10.1196 4.03617 10.1196 3.99102 10.116 3.94609C10.1203 3.89869 10.1203 3.851 10.116 3.80359C10.0938 3.75951 10.0688 3.71691 10.041 3.67609C10.0215 3.63289 9.9963 3.59253 9.966 3.55609L7.6635 1.05859C7.60293 0.992554 7.532 0.936824 7.4535 0.893594C7.40123 0.886674 7.34827 0.886674 7.296 0.893594C7.25378 0.886734 7.21072 0.886734 7.1685 0.893594C7.06866 0.853421 6.96059 0.837982 6.8535 0.848594L4.1985 1.83859C4.01157 1.90629 3.85917 2.04544 3.77479 2.22545C3.69041 2.40546 3.68095 2.61161 3.7485 2.79859C3.8162 2.98552 3.95534 3.13792 4.13536 3.2223C4.31537 3.30669 4.52152 3.31614 4.7085 3.24859L6.906 2.44609L8.406 4.03609L6.981 5.46109C6.50355 5.27549 5.99089 5.19806 5.47993 5.23437C4.96896 5.27069 4.4724 5.41984 4.026 5.67109C3.78657 5.80933 3.51497 5.8821 3.2385 5.8821C2.96203 5.8821 2.69043 5.80933 2.451 5.67109C2.21432 5.53303 1.9627 5.42231 1.701 5.34109C1.60504 5.30529 1.50276 5.28952 1.40047 5.29476C1.29818 5.3 1.19805 5.32613 1.10625 5.37155C1.01444 5.41697 0.932916 5.48071 0.866691 5.55885C0.800466 5.63698 0.750947 5.72785 0.721186 5.82586C0.691426 5.92386 0.682054 6.02692 0.69365 6.12869C0.705246 6.23045 0.737563 6.32877 0.788608 6.41756C0.839654 6.50636 0.908347 6.58376 0.990452 6.64499C1.07256 6.70623 1.16633 6.74999 1.266 6.77359L1.236 6.78859ZM14.736 9.10609C14.4743 9.18731 14.2227 9.29803 13.986 9.4361C13.7466 9.57433 13.475 9.6471 13.1985 9.6471C12.922 9.6471 12.6504 9.57433 12.411 9.4361C11.8914 9.143 11.305 8.98899 10.7085 8.98899C10.112 8.98899 9.52555 9.143 9.006 9.4361C8.76454 9.57639 8.49026 9.65028 8.211 9.65028C7.93175 9.65028 7.65746 9.57639 7.416 9.4361C6.89645 9.143 6.31003 8.98899 5.7135 8.98899C5.11698 8.98899 4.53055 9.143 4.011 9.4361C3.77157 9.57433 3.49997 9.6471 3.2235 9.6471C2.94703 9.6471 2.67543 9.57433 2.436 9.4361C2.19932 9.29803 1.9477 9.18731 1.686 9.10609C1.59004 9.07029 1.48776 9.05452 1.38547 9.05976C1.28318 9.065 1.18305 9.09113 1.09125 9.13655C0.999442 9.18197 0.917916 9.24571 0.851691 9.32385C0.785466 9.40198 0.735947 9.49285 0.706186 9.59086C0.676426 9.68886 0.667054 9.79192 0.67865 9.89369C0.690246 9.99545 0.722563 10.0938 0.773608 10.1826C0.824654 10.2714 0.893347 10.3488 0.975452 10.41C1.05756 10.4712 1.15133 10.515 1.251 10.5386C1.39962 10.5861 1.54289 10.6489 1.6785 10.7261C2.14495 10.999 2.67561 11.1428 3.216 11.1428C3.75639 11.1428 4.28705 10.999 4.7535 10.7261C5.04681 10.5619 5.37735 10.4756 5.7135 10.4756C6.04966 10.4756 6.38019 10.5619 6.6735 10.7261C7.14398 10.9951 7.67654 11.1366 8.2185 11.1366C8.76046 11.1366 9.29303 10.9951 9.7635 10.7261C10.0568 10.5619 10.3873 10.4756 10.7235 10.4756C11.0597 10.4756 11.3902 10.5619 11.6835 10.7261C12.1588 10.9977 12.6961 11.1424 13.2435 11.1461C13.7718 11.1406 14.2892 10.9957 14.7435 10.7261C14.8791 10.6489 15.0224 10.5861 15.171 10.5386C15.2656 10.51 15.3536 10.4631 15.43 10.4006C15.5064 10.338 15.5698 10.261 15.6164 10.1739C15.6631 10.0869 15.6921 9.99147 15.7019 9.89318C15.7117 9.7949 15.7021 9.69565 15.6735 9.6011C15.6449 9.50654 15.598 9.41854 15.5355 9.34212C15.4729 9.2657 15.3959 9.20234 15.3088 9.15568C15.2218 9.10902 15.1264 9.07996 15.0281 9.07017C14.9298 9.06037 14.8306 9.07003 14.736 9.09859V9.10609Z" fill="#283219"/>
</svg>
