<svg width="18" height="18" viewBox="0 0 18 18" fill="none" xmlns="http://www.w3.org/2000/svg">
<path d="M8.66602 9.83464V9.33464H8.16602H6.49935C6.41094 9.33464 6.32616 9.29952 6.26365 9.23701C6.20113 9.17449 6.16602 9.08971 6.16602 9.0013C6.16602 8.9129 6.20113 8.82811 6.26365 8.7656C6.32616 8.70309 6.41094 8.66797 6.49935 8.66797H8.16602H8.66602V8.16797V6.5013C8.66602 6.4129 8.70113 6.32811 8.76365 6.2656C8.82616 6.20309 8.91094 6.16797 8.99935 6.16797C9.08775 6.16797 9.17254 6.20309 9.23505 6.2656C9.29756 6.32811 9.33268 6.4129 9.33268 6.5013V8.16797V8.66797H9.83268H11.4993C11.5878 8.66797 11.6725 8.70309 11.7351 8.7656C11.7976 8.82811 11.8327 8.9129 11.8327 9.0013C11.8327 9.08971 11.7976 9.17449 11.7351 9.237C11.6725 9.29952 11.5878 9.33464 11.4993 9.33464H9.83268H9.33268V9.83464V11.5013C9.33268 11.5897 9.29756 11.6745 9.23505 11.737C9.17254 11.7995 9.08775 11.8346 8.99935 11.8346C8.91094 11.8346 8.82616 11.7995 8.76365 11.737C8.70113 11.6745 8.66602 11.5897 8.66602 11.5013V9.83464ZM15.666 16.168H16.166V15.668V2.33464V1.83464H15.666H2.33268H1.83268V2.33464V15.668V16.168H2.33268H15.666ZM1.49935 1.16797H16.4993C16.5878 1.16797 16.6725 1.20309 16.7351 1.2656C16.7976 1.32811 16.8327 1.4129 16.8327 1.5013V16.5013C16.8327 16.5897 16.7976 16.6745 16.7351 16.737C16.6725 16.7995 16.5878 16.8346 16.4993 16.8346H1.49935C1.41094 16.8346 1.32616 16.7995 1.26365 16.737C1.20113 16.6745 1.16602 16.5897 1.16602 16.5013V1.5013C1.16602 1.4129 1.20113 1.32811 1.26365 1.2656C1.32616 1.20309 1.41094 1.16797 1.49935 1.16797Z" fill="black" stroke="#8DE10E"/>
</svg>
