<svg width="15" height="15" viewBox="0 0 15 15" fill="none" xmlns="http://www.w3.org/2000/svg">
<path d="M13.6297 6.29412C13.5929 6.18742 13.5259 6.0937 13.4369 6.02433C13.3478 5.95495 13.2405 5.91291 13.1281 5.90328L9.80891 5.41912L8.32141 2.40328C8.27365 2.30466 8.19907 2.22148 8.10622 2.16328C8.01336 2.10509 7.906 2.07422 7.79641 2.07422C7.68683 2.07422 7.57946 2.10509 7.48661 2.16328C7.39376 2.22148 7.31918 2.30466 7.27141 2.40328L5.78391 5.41328L2.46475 5.90328C2.35679 5.91863 2.25529 5.96393 2.17177 6.03404C2.08825 6.10416 2.02606 6.19628 1.99225 6.29995C1.9613 6.40126 1.95852 6.50909 1.98421 6.61185C2.00991 6.71462 2.0631 6.80846 2.13808 6.88328L4.54725 9.21662L3.96391 12.53C3.94309 12.6393 3.95399 12.7523 3.99534 12.8557C4.03668 12.9591 4.10675 13.0485 4.19725 13.1133C4.28546 13.1763 4.3895 13.2136 4.49769 13.2208C4.60589 13.228 4.71395 13.2049 4.80975 13.1541L7.79641 11.5966L10.7714 13.16C10.8533 13.2061 10.9457 13.2303 11.0397 13.2299C11.1633 13.2304 11.2838 13.1916 11.3839 13.1191C11.4744 13.0543 11.5445 12.9649 11.5858 12.8615C11.6272 12.7582 11.6381 12.6451 11.6172 12.5358L11.0339 9.22245L13.4431 6.88912C13.5273 6.81776 13.5896 6.72398 13.6226 6.61865C13.6556 6.51333 13.6581 6.40079 13.6297 6.29412ZM10.0422 8.62745C9.97384 8.69362 9.92265 8.77552 9.89317 8.86602C9.86368 8.95651 9.85678 9.05285 9.87308 9.14662L10.2931 11.5908L8.09975 10.4241C8.01535 10.3792 7.9212 10.3557 7.82558 10.3557C7.72996 10.3557 7.63581 10.3792 7.55141 10.4241L5.35808 11.5908L5.77808 9.14662C5.79438 9.05285 5.78748 8.95651 5.75799 8.86602C5.72851 8.77552 5.67733 8.69362 5.60891 8.62745L3.85891 6.87745L6.31475 6.52162C6.40925 6.50847 6.49908 6.47235 6.57637 6.41641C6.65366 6.36048 6.71606 6.28644 6.75808 6.20078L7.79641 3.97828L8.89308 6.20662C8.9351 6.29227 8.9975 6.36631 9.07479 6.42225C9.15208 6.47818 9.24191 6.51431 9.33641 6.52745L11.7922 6.88328L10.0422 8.62745Z" fill="#283219"/>
</svg>
