<svg width="18" height="15" viewBox="0 0 18 15" fill="none" xmlns="http://www.w3.org/2000/svg">
<path d="M17.6296 2.18019C17.0032 2.45193 16.3407 2.63157 15.6629 2.71352C16.378 2.28629 16.914 1.61417 17.1712 0.821854C16.4992 1.22191 15.7635 1.50377 14.9962 1.65519C14.4833 1.099 13.8004 0.728768 13.0544 0.602564C12.3084 0.47636 11.5417 0.60132 10.8744 0.957846C10.2071 1.31437 9.677 1.8823 9.36726 2.57255C9.05751 3.26281 8.98563 4.03635 9.16289 4.77185C7.80408 4.70313 6.47493 4.34932 5.26177 3.73341C4.04861 3.1175 2.9786 2.25327 2.12122 1.19685C1.82051 1.72199 1.66249 2.31671 1.66289 2.92185C1.66182 3.48384 1.79974 4.03737 2.06435 4.53316C2.32897 5.02895 2.71207 5.45161 3.17956 5.76352C2.63621 5.74874 2.10446 5.60294 1.62956 5.33852V5.38019C1.63363 6.1676 1.90955 6.92943 2.41065 7.53683C2.91175 8.14422 3.60727 8.55989 4.37956 8.71352C4.08227 8.80399 3.77362 8.85169 3.46289 8.85519C3.2478 8.85268 3.03324 8.83317 2.82122 8.79685C3.04115 9.4742 3.46674 10.0661 4.03879 10.4903C4.61083 10.9145 5.30087 11.1498 6.01289 11.1635C4.81056 12.1096 3.32613 12.6259 1.79622 12.6302C1.51767 12.6311 1.23934 12.6144 0.962891 12.5802C2.52491 13.5887 4.34523 14.1241 6.20456 14.1219C7.48763 14.1352 8.7605 13.8927 9.94882 13.4086C11.1371 12.9245 12.2171 12.2084 13.1256 11.3023C14.034 10.3961 14.7529 9.31801 15.24 8.13094C15.7272 6.94387 15.9729 5.67163 15.9629 4.38852C15.9629 4.24685 15.9629 4.09685 15.9629 3.94685C16.6168 3.4592 17.1808 2.86138 17.6296 2.18019Z" fill="#1DA1F2"/>
</svg>
