<svg width="17" height="16" viewBox="0 0 17 16" fill="none" xmlns="http://www.w3.org/2000/svg">
<path d="M9.90994 8.00019L16.2099 1.71019C16.3982 1.52188 16.504 1.26649 16.504 1.00019C16.504 0.733884 16.3982 0.478489 16.2099 0.290185C16.0216 0.101882 15.7662 -0.00390625 15.4999 -0.00390625C15.2336 -0.00390625 14.9782 0.101882 14.7899 0.290185L8.49994 6.59019L2.20994 0.290185C2.02164 0.101882 1.76624 -0.00390601 1.49994 -0.00390601C1.23364 -0.00390601 0.978243 0.101882 0.789939 0.290185C0.601635 0.478489 0.495847 0.733884 0.495847 1.00019C0.495847 1.26649 0.601635 1.52188 0.789939 1.71019L7.08994 8.00019L0.789939 14.2902C0.696211 14.3831 0.621816 14.4937 0.571048 14.6156C0.520279 14.7375 0.494141 14.8682 0.494141 15.0002C0.494141 15.1322 0.520279 15.2629 0.571048 15.3848C0.621816 15.5066 0.696211 15.6172 0.789939 15.7102C0.882902 15.8039 0.993503 15.8783 1.11536 15.9291C1.23722 15.9798 1.36793 16.006 1.49994 16.006C1.63195 16.006 1.76266 15.9798 1.88452 15.9291C2.00638 15.8783 2.11698 15.8039 2.20994 15.7102L8.49994 9.41018L14.7899 15.7102C14.8829 15.8039 14.9935 15.8783 15.1154 15.9291C15.2372 15.9798 15.3679 16.006 15.4999 16.006C15.632 16.006 15.7627 15.9798 15.8845 15.9291C16.0064 15.8783 16.117 15.8039 16.2099 15.7102C16.3037 15.6172 16.3781 15.5066 16.4288 15.3848C16.4796 15.2629 16.5057 15.1322 16.5057 15.0002C16.5057 14.8682 16.4796 14.7375 16.4288 14.6156C16.3781 14.4937 16.3037 14.3831 16.2099 14.2902L9.90994 8.00019Z" fill="#283219"/>
</svg>
