<svg width="82" height="28" viewBox="0 0 82 28" fill="none" xmlns="http://www.w3.org/2000/svg">
<path d="M0.796387 8.94955H6.20761V9.74319C6.20761 13.3507 7.32593 17.0303 8.55247 19.9884L9.81509 23.0548H9.95939L11.222 19.9884C12.4485 17.0303 13.5669 13.3507 13.5669 9.74319V8.94955H18.7616V9.74319C18.7616 14.1082 17.1743 18.6537 15.5871 22.2612L13.5308 26.9869H6.02723L3.97097 22.2612C2.38368 18.6537 0.796387 14.1082 0.796387 9.74319V8.94955Z" fill="#283219"/>
<path d="M19.1396 17.9322C19.1396 12.2684 22.8914 8.5888 28.3747 8.5888C33.6416 8.5888 37.0327 11.9798 37.0327 17.1385C37.0327 17.6796 36.9966 18.2929 36.8884 19.0144H24.2622C24.6229 21.4675 26.2102 23.0187 28.4469 23.0187C30.2145 23.0187 31.5854 22.0086 31.874 20.5296H37.1409C36.6359 24.606 33.0645 27.3477 28.3387 27.3477C22.7831 27.3477 19.1396 23.5238 19.1396 17.9322ZM28.4469 12.557C26.6431 12.557 25.2362 13.6393 24.5869 15.4069H31.8379C31.6575 13.7114 30.3228 12.557 28.4469 12.557Z" fill="#283219"/>
<path d="M39.0021 26.9869V0.652344H44.2691V26.9869H39.0021Z" fill="#283219"/>
<path d="M47.6615 26.9869V8.94955H52.9284V26.9869H47.6615Z" fill="#283219"/>
<path d="M64.2573 27.3477C58.5936 27.3477 54.8057 23.5238 54.8057 17.8961C54.8057 12.2684 58.5936 8.5888 64.2573 8.5888C69.9211 8.5888 73.7089 12.2684 73.7089 17.8961C73.7089 23.5238 69.9211 27.3477 64.2573 27.3477ZM60.2169 17.8961C60.2169 20.9264 61.7321 22.8023 64.2573 22.8023C66.7825 22.8023 68.2977 20.9264 68.2977 17.8961C68.2977 14.8658 66.7825 13.1342 64.2573 13.1342C61.7321 13.1342 60.2169 14.8658 60.2169 17.8961Z" fill="#283219"/>
<circle cx="78.7964" cy="24.6523" r="3" fill="#AEF843"/>
</svg>
