<svg width="43" height="43" viewBox="0 0 43 43" fill="none" xmlns="http://www.w3.org/2000/svg">
<g clip-path="url(#clip0_2848_88009)">
<mask id="mask0_2848_88009" style="mask-type:luminance" maskUnits="userSpaceOnUse" x="0" y="0" width="43" height="43">
<path d="M42.7969 21.6523C42.7969 10.0544 33.3949 0.652344 21.7969 0.652344C10.1989 0.652344 0.796875 10.0544 0.796875 21.6523C0.796875 33.2503 10.1989 42.6523 21.7969 42.6523C33.3949 42.6523 42.7969 33.2503 42.7969 21.6523Z" fill="white"/>
</mask>
<g mask="url(#mask0_2848_88009)">
<path d="M42.7969 0.652344H0.796875V42.6523H42.7969V0.652344Z" fill="#C8FC7C"/>
<path d="M-4.77787 28.868C-6.59219 40.3232 1.22328 51.0802 12.6785 52.8946C24.1337 54.7089 34.8907 46.8934 36.705 35.4382C38.5194 23.983 30.7039 13.226 19.2487 11.4117C7.79352 9.59733 -2.96354 17.4128 -4.77787 28.868Z" fill="#405059"/>
<path d="M10.3838 28.9688C10.5653 30.1148 11.3464 31.1177 12.5552 31.757C13.7641 32.3962 15.3017 32.6194 16.8297 32.3774C18.3578 32.1353 19.7511 31.448 20.7033 30.4665C21.6554 29.485 22.0883 28.2897 21.9068 27.1437" fill="white"/>
<path d="M7.92561 24.6324C7.82481 23.996 7.35618 23.5414 6.87888 23.617C6.40158 23.6926 6.09636 24.2698 6.19716 24.9062C6.29795 25.5426 6.76659 25.9972 7.24389 25.9216C7.72119 25.846 8.02641 25.2688 7.92561 24.6324Z" fill="white"/>
<path d="M24.0574 22.0778C23.9567 21.4414 23.488 20.9867 23.0107 21.0623C22.5334 21.1379 22.2282 21.7151 22.329 22.3515C22.4298 22.9879 22.8984 23.4425 23.3757 23.3669C23.853 23.2913 24.1582 22.7142 24.0574 22.0778Z" fill="white"/>
</g>
</g>
<defs>
<clipPath id="clip0_2848_88009">
<rect width="42" height="42" fill="white" transform="translate(0.796875 0.652344)"/>
</clipPath>
</defs>
</svg>
